<svg width="79" height="79" viewBox="0 0 79 79" fill="none" xmlns="http://www.w3.org/2000/svg">
<g id="Group 62">
<circle id="Ellipse 12" cx="39.5" cy="39.5" r="39.5" fill="#F9F9F9"/>
<g id="Group 59">
<path id="Vector" d="M63.2798 40.5681C63.2798 38.7954 63.1208 37.0908 62.8253 35.4545H39.2799V45.1363H52.7344C52.1435 48.2499 50.3708 50.8862 47.7117 52.659V58.9544H55.8253C60.5526 54.5908 63.2798 48.1817 63.2798 40.5681Z" fill="#4285F4"/>
<path id="Vector_2" d="M39.2799 65C46.0299 65 51.689 62.7728 55.8253 58.9546L47.7117 52.6592C45.4844 54.1592 42.6435 55.0683 39.2799 55.0683C32.7799 55.0683 27.2572 50.6819 25.28 44.7728H16.9618V51.2274C21.0754 59.3864 29.5072 65 39.2799 65Z" fill="#34A853"/>
<path id="Vector_3" d="M25.28 44.7495C24.78 43.2496 24.4845 41.6586 24.4845 39.9996C24.4845 38.3405 24.78 36.7496 25.28 35.2496V28.795H16.9618C15.2573 32.1587 14.28 35.9541 14.28 39.9996C14.28 44.045 15.2573 47.8405 16.9618 51.2041L23.4391 46.1586L25.28 44.7495Z" fill="#FBBC05"/>
<path id="Vector_4" d="M39.2799 24.9545C42.9617 24.9545 46.2344 26.2272 48.8481 28.6818L56.0071 21.5227C51.6663 17.4773 46.0299 15 39.2799 15C29.5072 15 21.0754 20.6136 16.9618 28.7954L25.28 35.25C27.2572 29.3409 32.7799 24.9545 39.2799 24.9545Z" fill="#EA4335"/>
</g>
</g>
</svg>
