<svg width="85" height="67" viewBox="0 0 85 67" fill="none" xmlns="http://www.w3.org/2000/svg">
<path id="Vector" d="M0 67V57.8888C2.7013 57.8888 4.79713 57.1921 6.28749 55.7985C7.77777 54.4049 10.4764 53.7082 14.3834 53.7082C18.1698 53.7082 20.8364 54.4049 22.3831 55.7985C23.9299 57.1921 25.9319 57.8888 28.389 57.8888C31.0232 57.8888 33.0695 57.1921 34.5277 55.7985C35.9859 54.4049 38.6434 53.7082 42.5 53.7082C46.3566 53.7082 49.0141 54.4049 50.4723 55.7985C51.9305 57.1921 53.9768 57.8888 56.611 57.8888C59.0681 57.8888 61.0701 57.1921 62.6169 55.7985C64.1636 54.4049 66.8302 53.7082 70.6166 53.7082C74.5236 53.7082 77.2222 54.4049 78.7125 55.7985C80.2029 57.1921 82.2987 57.8888 85 57.8888V67C81.1999 67 78.4661 66.3032 76.7988 64.9097C75.1315 63.5161 73.0356 62.8193 70.5113 62.8193C68.0008 62.8193 65.9721 63.5161 64.4253 64.9097C62.8785 66.3032 60.2387 67 56.5057 67C52.6658 67 50.0301 66.3032 48.5986 64.9097C47.167 63.5161 45.1342 62.8193 42.5 62.8193C39.8658 62.8193 37.833 63.5161 36.4014 64.9097C34.9699 66.3032 32.3342 67 28.4943 67C24.7613 67 22.1215 66.3032 20.5747 64.9097C19.0279 63.5161 16.9993 62.8193 14.4887 62.8193C11.9644 62.8193 9.86855 63.5161 8.20121 64.9097C6.53387 66.3032 3.80013 67 0 67ZM15.947 49.3274C14.2117 49.3274 12.5466 49.0056 10.9518 48.3618C9.35697 47.718 7.94601 46.7873 6.71892 45.5694L1.05306 39.9209L7.47902 33.5432L13.1701 39.0621C13.5577 39.4468 13.9896 39.7354 14.4658 39.9278C14.942 40.1201 15.4357 40.2163 15.947 40.2163H21.0611V26.8563L15.5303 30.9075L10.1277 23.5936L42.5 0L74.8723 23.5936L69.4697 31.012L63.9389 26.9608V40.2163H69.053C69.5643 40.2163 70.058 40.1201 70.5342 39.9278C71.0104 39.7354 71.4423 39.4468 71.8299 39.0621L77.521 33.5432L83.9469 39.9209L78.2811 45.5694C77.054 46.7873 75.643 47.718 74.0482 48.3618C72.4534 49.0056 70.7883 49.3274 69.053 49.3274H15.947ZM30.2411 40.2163H37.91V31.2801H47.09V40.2163H54.759V20.2444L42.5 11.3219L30.2411 20.2194V40.2163Z" fill="white"/>
</svg>
