<svg width="78" height="85" viewBox="0 0 78 85" fill="none" xmlns="http://www.w3.org/2000/svg">
<path d="M0 85V76.5598H4.21196C6.22728 76.5598 8.20511 76.2303 10.1454 75.5712C12.0858 74.9121 13.9734 73.9312 15.808 72.6284C17.6272 73.9312 19.5108 74.896 21.4589 75.5229C23.407 76.1498 25.3887 76.4633 27.404 76.4633C29.4193 76.4633 31.4132 76.146 33.3858 75.5113C35.3584 74.8768 37.2298 73.9081 39 72.6052C40.8192 73.9081 42.7029 74.8768 44.6509 75.5113C46.599 76.146 48.5807 76.4633 50.596 76.4633C52.6113 76.4633 54.6053 76.146 56.5778 75.5113C58.5504 74.8768 60.4218 73.9081 62.192 72.6052C63.9622 73.9081 65.8336 74.8929 67.8062 75.5596C69.7788 76.2264 71.7727 76.5598 73.788 76.5598H78V85H73.788C71.8064 85 69.8453 84.7586 67.905 84.2758C65.9646 83.7931 64.0603 83.0766 62.192 82.1265C60.3238 83.0766 58.4195 83.7931 56.4791 84.2758C54.5387 84.7586 52.5777 85 50.596 85C48.6143 85 46.6533 84.7586 44.713 84.2758C42.7726 83.7931 40.8683 83.0766 39 82.1265C37.1318 83.0766 35.2274 83.7931 33.287 84.2758C31.3467 84.7586 29.3857 85 27.404 85C25.4223 85 23.4613 84.7586 21.5209 84.2758C19.5805 83.7931 17.6762 83.0766 15.808 82.1265C13.9397 83.0766 12.0354 83.7931 10.095 84.2758C8.15467 84.7586 6.19366 85 4.21196 85H0ZM25.402 10.1635L46.9701 14.1453C47.9183 14.2895 48.8342 14.6589 49.7179 15.2536C50.6016 15.8483 51.3488 16.6914 51.9594 17.7829L55.3416 23.7694C56.9703 26.6198 59.278 28.9308 62.2645 30.7024C65.2511 32.474 68.5636 33.3598 72.202 33.3598V41.7769C67.0538 41.7769 62.3836 40.5371 58.1912 38.0574C53.9989 35.5777 50.6878 32.3257 48.2579 28.3012C48.1935 28.3656 47.7772 28.6482 47.009 29.1491C46.2409 29.6501 45.3999 30.2116 44.4861 30.8336C43.5722 31.4556 42.7029 32.0493 41.878 32.6147C41.0531 33.18 40.5195 33.5515 40.2773 33.7292C40.5994 33.9867 41.4737 34.6832 42.9 35.8188C44.3264 36.9544 45.8739 38.1666 47.5426 39.4553C49.2113 40.7441 50.7626 41.9441 52.1967 43.0552C53.6309 44.1663 54.5013 44.8506 54.808 45.1081V59.9775C55.8541 60.7164 56.8796 61.4797 57.8845 62.2675C58.8894 63.0554 59.8658 63.8264 60.8139 64.5807C59.3686 65.9087 57.7829 66.9459 56.0569 67.6925C54.3307 68.4391 52.5105 68.8123 50.596 68.8123C48.2922 68.8123 46.1418 68.2844 44.1447 67.2286C42.1476 66.1728 40.4327 64.8312 39 63.2037C37.5673 64.8312 35.8524 66.1728 33.8553 67.2286C31.8582 68.2844 29.7078 68.8123 27.404 68.8123C26.7444 68.8123 26.097 68.7641 25.4619 68.6675C24.8267 68.5709 24.2038 68.4184 23.5933 68.2099C17.9913 64.3813 13.3029 60.5051 9.52786 56.5813C5.75285 52.6575 3.86534 49.2487 3.86534 46.3549C3.86534 44.2209 4.67693 42.8089 6.30011 42.119C7.92323 41.4291 9.61081 41.0842 11.3628 41.0842C13.1849 41.0842 15.2814 41.3424 17.6524 41.8588C20.0234 42.3751 22.5478 43.1174 25.2255 44.0858L23.2656 32.8749C22.9925 31.4951 23.1336 30.1315 23.6888 28.784C24.2441 27.4364 25.1632 26.3379 26.4461 25.4884L34.0171 20.3731C33.8546 20.3731 33.4492 20.3042 32.8008 20.1664C32.1523 20.0285 31.4349 19.8868 30.6486 19.7413C29.8622 19.5958 29.1448 19.4541 28.4963 19.3162C27.8479 19.1784 27.4425 19.1095 27.28 19.1095L16.1987 26.6597L11.4573 19.7098L25.402 10.1635ZM32.9142 38.8089L34.4919 47.9354C36.2159 48.7568 38.2623 49.8056 40.6312 51.0818C43.0001 52.358 44.9177 53.439 46.3841 54.3248V49.3397C46.2062 49.2109 45.4471 48.618 44.1069 47.5607C42.7666 46.5035 41.309 45.3697 39.7342 44.1593C38.1594 42.9488 36.6895 41.8027 35.3247 40.7211C33.96 39.6394 33.1565 39.002 32.9142 38.8089ZM58.8582 16.1415C56.6398 16.1415 54.739 15.3505 53.1557 13.7686C51.5725 12.1866 50.7809 10.2873 50.7809 8.07076C50.7809 5.85417 51.5725 3.9549 53.1557 2.37294C54.739 0.790984 56.6398 0 58.8582 0C61.0766 0 62.9774 0.790984 64.5606 2.37294C66.1439 3.9549 66.9355 5.85417 66.9355 8.07076C66.9355 10.2873 66.1439 12.1866 64.5606 13.7686C62.9774 15.3505 61.0766 16.1415 58.8582 16.1415Z" fill="white"/>
</svg>
