<svg width="85" height="74" viewBox="0 0 85 74" fill="none" xmlns="http://www.w3.org/2000/svg">
<path d="M7.43148 74V66.4413H11.22C13.0327 66.4413 14.8116 66.1462 16.5569 65.556C18.3022 64.9657 19.9999 64.0872 21.6501 62.9205C23.3003 64.0872 24.998 64.9657 26.7433 65.556C28.4886 66.1462 30.2675 66.4413 32.0802 66.4413C33.8929 66.4413 35.6864 66.1428 37.4606 65.5456C39.2349 64.9485 40.9182 64.0666 42.5104 62.8998C44.1605 64.0666 45.8583 64.9451 47.6036 65.5353C49.3489 66.1256 51.1278 66.4207 52.9405 66.4207C54.7532 66.4207 56.5467 66.1256 58.3209 65.5353C60.0952 64.9451 61.7784 64.0666 63.3707 62.8998C64.9629 64.0666 66.6461 64.9485 68.4204 65.5456C70.1946 66.1428 71.9881 66.4413 73.8008 66.4413H77.5893V74H73.8008C72.0184 74 70.2545 73.7838 68.5092 73.3515C66.7639 72.9191 65.0511 72.2775 63.3707 71.4266C61.6903 72.2775 59.9774 72.9191 58.2321 73.3515C56.4868 73.7838 54.723 74 52.9405 74C51.1581 74 49.3942 73.7838 47.649 73.3515C45.9037 72.9191 44.1908 72.2775 42.5104 71.4266C40.83 72.2775 39.1171 72.9191 37.3718 73.3515C35.6266 73.7838 33.8627 74 32.0802 74C30.2978 74 28.5339 73.7838 26.7887 73.3515C25.0434 72.9191 23.3305 72.2775 21.6501 71.4266C19.9697 72.2775 18.2568 72.9191 16.5115 73.3515C14.7663 73.7838 13.0024 74 11.22 74H7.43148ZM32.0802 59.503C30.0081 59.503 28.0738 59.0303 26.2775 58.0848C24.4812 57.1392 22.9387 55.9377 21.6501 54.4802C20.665 55.4903 19.589 56.403 18.4219 57.2181C17.2548 58.0333 15.9746 58.6715 14.5814 59.1327C12.1641 58.4848 9.63467 57.694 6.99306 56.7604C4.35151 55.8268 2.02049 54.9151 0 54.0253C3.28144 52.6167 7.23745 51.1965 11.868 49.7647C16.4987 48.333 20.9869 47.2643 25.3328 46.5588L29.9432 32.3043C30.6083 30.2615 31.8661 28.9025 33.7166 28.227C35.567 27.5516 37.33 27.638 39.0053 28.4864L47.7255 32.9002L57.2977 27.8566L62.9304 15.2659L61.1921 10.6829L65.9858 0L77.6933 5.17699L72.8995 15.8806L68.2928 17.61L55.6577 45.9741C61.0189 46.6358 66.4396 47.769 71.9198 49.3737C77.4 50.9784 81.7601 52.529 85 54.0253C83.1394 54.8574 80.8229 55.7582 78.0503 56.7275C75.2777 57.6968 72.7408 58.4986 70.4393 59.1327C69.0184 58.7016 67.7313 58.0854 66.5781 57.284C65.4249 56.4825 64.3557 55.548 63.3707 54.4802C62.082 55.9377 60.5395 57.1392 58.7432 58.0848C56.9469 59.0303 55.0127 59.503 52.9405 59.503C50.8683 59.503 48.9341 59.0303 47.1378 58.0848C45.3415 57.1392 43.799 55.9377 42.5104 54.4802C41.2217 55.9377 39.6793 57.1392 37.883 58.0848C36.0867 59.0303 34.1524 59.503 32.0802 59.503ZM49.5167 45.3068L52.4247 38.908L47.7255 41.3442L41.8283 38.3967L39.644 45.0474H42.7598C43.8658 45.0474 44.9788 45.0618 46.0986 45.0907C47.2185 45.1195 48.3578 45.1915 49.5167 45.3068ZM42.5104 26.0239C40.515 26.0239 38.8053 25.3155 37.3813 23.8988C35.9572 22.4821 35.2452 20.7812 35.2452 18.7961C35.2452 16.811 35.9572 15.1101 37.3813 13.6934C38.8053 12.2767 40.515 11.5683 42.5104 11.5683C44.5057 11.5683 46.2154 12.2767 47.6395 13.6934C49.0636 15.1101 49.7756 16.811 49.7756 18.7961C49.7756 20.7812 49.0636 22.4821 47.6395 23.8988C46.2154 25.3155 44.5057 26.0239 42.5104 26.0239Z" fill="white"/>
</svg>
