<svg width="85" height="71" viewBox="0 0 85 71" fill="none" xmlns="http://www.w3.org/2000/svg">
<path d="M24.8223 70.9999V57.1801H0L13.2069 36.4502H6.77763L31.9667 0L42.5 15.2902L53.0333 0L78.2224 36.4502H71.7931L85 57.1801H60.1777V71H45.9092V57.1801H39.0908V71L24.8223 70.9999ZM58.9141 49.3199H70.7425L57.4504 28.59H63.3034L53.0333 13.7242L47.2469 22.0762L57.1355 36.4502H50.7062L58.9141 49.3199ZM14.2575 49.3199H49.6759L36.3838 28.59H42.2369L31.9667 13.7242L21.6966 28.59H27.5496L14.2575 49.3199ZM14.2575 49.3199H27.5496H21.6966H42.2369H36.3838H49.6759H14.2575ZM58.9141 49.3199H50.7062H57.1355H47.2469H63.3034H57.4504H70.7425H58.9141Z" fill="white"/>
</svg>
