<svg width="19" height="19" viewBox="0 0 19 19" fill="none" xmlns="http://www.w3.org/2000/svg">
<path id="Vector" d="M9.2989 10.4364V1.13752C9.2989 0.818308 9.40868 0.548917 9.62825 0.32935C9.84782 0.109784 10.1172 0 10.4364 0H17.5022C17.8214 0 18.0908 0.109784 18.3103 0.32935C18.5299 0.548917 18.6397 0.818308 18.6397 1.13752V6.26305C18.6397 6.58227 18.5299 6.85166 18.3103 7.07123C18.0908 7.29078 17.8214 7.40055 17.5022 7.40055H12.3348L9.2989 10.4364ZM11.5739 5.12555H16.3647V2.27502H11.5739V5.12555ZM17.1592 18.4065C15.0516 18.4065 12.9692 17.9474 10.9122 17.0291C8.85515 16.1108 6.98133 14.8074 5.29075 13.1188C3.60017 11.4302 2.29572 9.55669 1.37742 7.49832C0.459141 5.43996 0 3.35628 0 1.2473C0 0.890933 0.118217 0.593958 0.35465 0.356375C0.591083 0.118792 0.886633 0 1.2413 0H5.28533C5.61032 0 5.8884 0.0961073 6.11955 0.288324C6.35072 0.480541 6.49493 0.726832 6.55218 1.0272L7.1962 4.40165C7.24547 4.7281 7.23812 5.00491 7.17417 5.23207C7.11022 5.45926 6.98767 5.65745 6.80652 5.82665L4.34565 8.22882C4.66303 8.80164 5.03894 9.35961 5.47337 9.90272C5.90779 10.4458 6.39202 10.9761 6.92607 11.4935C7.42283 11.9902 7.9346 12.4455 8.4614 12.8593C8.98822 13.273 9.54039 13.6473 10.1179 13.9821L12.5098 11.6081C12.7036 11.4183 12.9413 11.2819 13.2228 11.1989C13.5043 11.116 13.7917 11.0991 14.0848 11.1484L17.3734 11.8305C17.6904 11.921 17.9408 12.0747 18.1247 12.2916C18.3086 12.5084 18.4005 12.767 18.4005 13.0674V17.1593C18.4005 17.5156 18.2816 17.8126 18.0438 18.0502C17.8059 18.2878 17.511 18.4065 17.1592 18.4065ZM3.25815 6.10763L4.90218 4.51142L4.48913 2.27502H2.30598C2.38134 2.93046 2.49095 3.57744 2.6348 4.21597C2.77865 4.85451 2.98643 5.48506 3.25815 6.10763ZM12.232 15.0875C12.8581 15.3589 13.4977 15.5759 14.1508 15.7386C14.8039 15.9013 15.4621 16.0116 16.1255 16.0696V13.8995L13.8951 13.4364L12.232 15.0875Z" fill="#FF6601"/>
</svg>
